<svg width="132" height="41" viewBox="0 0 132 41" fill="none" xmlns="http://www.w3.org/2000/svg">
<path d="M4.8544 32L0.5904 10.5488H4.4936L6.3632 21.3728C6.53813 22.5317 6.71307 23.6797 6.888 24.8168C7.06293 25.9539 7.23787 27.0909 7.4128 28.228H7.544C7.78453 27.0909 8.01413 25.9539 8.2328 24.8168C8.47333 23.6579 8.71387 22.5099 8.9544 21.3728L11.5784 10.5488H14.8912L17.5152 21.3728C17.7557 22.488 17.9963 23.6251 18.2368 24.784C18.4773 25.9211 18.7179 27.0691 18.9584 28.228H19.0896C19.2645 27.0691 19.4285 25.9211 19.5816 24.784C19.7565 23.6469 19.9315 22.5099 20.1064 21.3728L21.976 10.5488H25.6168L21.5168 32H16.7936L14.1368 20.7168C13.9619 19.8859 13.7869 19.0659 13.612 18.2568C13.4589 17.4259 13.3168 16.5949 13.1856 15.764H13.0544C12.9013 16.5949 12.7373 17.4259 12.5624 18.2568C12.4093 19.0659 12.2453 19.8859 12.0704 20.7168L9.4792 32H4.8544ZM28.628 32V15.8952H32.4V32H28.628ZM30.5304 13.0744C29.8525 13.0744 29.2949 12.8776 28.8576 12.484C28.4203 12.0904 28.2016 11.5765 28.2016 10.9424C28.2016 10.3083 28.4203 9.7944 28.8576 9.4008C29.2949 8.98533 29.8525 8.7776 30.5304 8.7776C31.2083 8.7776 31.7659 8.98533 32.2032 9.4008C32.6405 9.7944 32.8592 10.3083 32.8592 10.9424C32.8592 11.5765 32.6405 12.0904 32.2032 12.484C31.7659 12.8776 31.2083 13.0744 30.5304 13.0744ZM43.8052 32.3936C42.362 32.3936 40.9625 32.1203 39.6068 31.5736C38.2729 31.0269 37.0921 30.2507 36.0644 29.2448L38.2948 26.6536C39.0601 27.3752 39.9348 27.9656 40.9188 28.4248C41.9028 28.8621 42.8868 29.0808 43.8708 29.0808C45.0953 29.0808 46.0246 28.8293 46.6588 28.3264C47.2929 27.8235 47.61 27.1565 47.61 26.3256C47.61 25.8883 47.5225 25.5165 47.3476 25.2104C47.1945 24.9043 46.9649 24.6419 46.6588 24.4232C46.3745 24.1827 46.0246 23.964 45.6092 23.7672C45.2156 23.5704 44.7782 23.3736 44.2972 23.1768L41.3452 21.8976C40.8204 21.6789 40.2956 21.4056 39.7708 21.0776C39.2678 20.7496 38.8086 20.356 38.3932 19.8968C37.9777 19.4376 37.6388 18.9019 37.3764 18.2896C37.1358 17.6773 37.0156 16.9776 37.0156 16.1904C37.0156 15.3376 37.1905 14.5504 37.5404 13.8288C37.9121 13.0853 38.415 12.4403 39.0492 11.8936C39.6833 11.3469 40.4377 10.9205 41.3124 10.6144C42.2089 10.3083 43.182 10.1552 44.2316 10.1552C45.478 10.1552 46.6806 10.4067 47.8396 10.9096C48.9985 11.3907 49.9934 12.0467 50.8244 12.8776L48.8892 15.3048C48.1894 14.7363 47.4678 14.288 46.7244 13.96C45.9809 13.632 45.15 13.468 44.2316 13.468C43.2038 13.468 42.3838 13.6976 41.7716 14.1568C41.1593 14.5941 40.8532 15.2064 40.8532 15.9936C40.8532 16.4091 40.9406 16.7699 41.1156 17.076C41.3124 17.3603 41.5638 17.6227 41.87 17.8632C42.198 18.0819 42.5697 18.2896 42.9852 18.4864C43.4006 18.6613 43.827 18.8363 44.2644 19.0112L47.1836 20.2248C47.8177 20.4872 48.3972 20.7933 48.922 21.1432C49.4468 21.4931 49.895 21.8976 50.2668 22.3568C50.6604 22.816 50.9665 23.3517 51.1852 23.964C51.4038 24.5544 51.5132 25.2432 51.5132 26.0304C51.5132 26.9051 51.3382 27.7251 50.9884 28.4904C50.6385 29.2557 50.1246 29.9336 49.4468 30.524C48.7908 31.0925 47.9817 31.5517 47.0196 31.9016C46.0793 32.2296 45.0078 32.3936 43.8052 32.3936ZM61.8098 32.3936C60.7165 32.3936 59.6887 32.2077 58.7266 31.836C57.7863 31.4643 56.9663 30.9176 56.2666 30.196C55.5669 29.4744 55.0202 28.5888 54.6266 27.5392C54.233 26.4896 54.0362 25.2979 54.0362 23.964C54.0362 22.6301 54.2549 21.4384 54.6922 20.3888C55.1295 19.3392 55.7199 18.4536 56.4634 17.732C57.2069 17.0104 58.0597 16.4637 59.0218 16.092C60.0058 15.6984 61.0335 15.5016 62.105 15.5016C63.1546 15.5016 64.0511 15.6765 64.7946 16.0264C65.5599 16.3763 66.2378 16.8027 66.8282 17.3056L64.9914 19.7656C64.5541 19.3939 64.1167 19.1096 63.6794 18.9128C63.2639 18.6941 62.8047 18.5848 62.3018 18.5848C60.9898 18.5848 59.9293 19.0768 59.1202 20.0608C58.3111 21.0229 57.9066 22.324 57.9066 23.964C57.9066 25.5821 58.3002 26.8832 59.0874 27.8672C59.8965 28.8293 60.9351 29.3104 62.2034 29.3104C62.8375 29.3104 63.4279 29.1792 63.9746 28.9168C64.5431 28.6325 65.057 28.3045 65.5162 27.9328L67.0578 30.4256C66.2925 31.0816 65.4506 31.5736 64.5322 31.9016C63.6357 32.2296 62.7282 32.3936 61.8098 32.3936ZM70.2366 32V8.8432H74.0086V14.8128L73.8774 17.9288C74.5553 17.2947 75.2987 16.7371 76.1078 16.256C76.9387 15.7531 77.9118 15.5016 79.027 15.5016C80.7545 15.5016 82.0118 16.0592 82.799 17.1744C83.5862 18.2677 83.9798 19.8421 83.9798 21.8976V32H80.2078V22.3896C80.2078 21.0557 80.011 20.1155 79.6174 19.5688C79.2238 19.0221 78.5787 18.7488 77.6822 18.7488C76.9825 18.7488 76.3593 18.9237 75.8126 19.2736C75.2878 19.6016 74.6865 20.0936 74.0086 20.7496V32H70.2366ZM95.1192 32.3936C94.1134 32.3936 93.1512 32.2077 92.2328 31.836C91.3144 31.4643 90.4944 30.9176 89.7728 30.196C89.0731 29.4744 88.5155 28.5888 88.1 27.5392C87.6846 26.4896 87.4768 25.2979 87.4768 23.964C87.4768 22.6301 87.6846 21.4384 88.1 20.3888C88.5155 19.3392 89.0731 18.4536 89.7728 17.732C90.4944 17.0104 91.3144 16.4637 92.2328 16.092C93.1512 15.6984 94.1134 15.5016 95.1192 15.5016C96.1251 15.5016 97.0872 15.6984 98.0056 16.092C98.9459 16.4637 99.7659 17.0104 100.466 17.732C101.165 18.4536 101.723 19.3392 102.138 20.3888C102.576 21.4384 102.794 22.6301 102.794 23.964C102.794 25.2979 102.576 26.4896 102.138 27.5392C101.723 28.5888 101.165 29.4744 100.466 30.196C99.7659 30.9176 98.9459 31.4643 98.0056 31.836C97.0872 32.2077 96.1251 32.3936 95.1192 32.3936ZM95.1192 29.3104C96.3 29.3104 97.2294 28.8293 97.9072 27.8672C98.5851 26.8832 98.924 25.5821 98.924 23.964C98.924 22.324 98.5851 21.0229 97.9072 20.0608C97.2294 19.0768 96.3 18.5848 95.1192 18.5848C93.9384 18.5848 93.0091 19.0768 92.3312 20.0608C91.6752 21.0229 91.3472 22.324 91.3472 23.964C91.3472 25.5821 91.6752 26.8832 92.3312 27.8672C93.0091 28.8293 93.9384 29.3104 95.1192 29.3104ZM113.121 32.3936C112.115 32.3936 111.153 32.2077 110.234 31.836C109.316 31.4643 108.496 30.9176 107.774 30.196C107.075 29.4744 106.517 28.5888 106.102 27.5392C105.686 26.4896 105.478 25.2979 105.478 23.964C105.478 22.6301 105.686 21.4384 106.102 20.3888C106.517 19.3392 107.075 18.4536 107.774 17.732C108.496 17.0104 109.316 16.4637 110.234 16.092C111.153 15.6984 112.115 15.5016 113.121 15.5016C114.127 15.5016 115.089 15.6984 116.007 16.092C116.947 16.4637 117.767 17.0104 118.467 17.732C119.167 18.4536 119.725 19.3392 120.14 20.3888C120.577 21.4384 120.796 22.6301 120.796 23.964C120.796 25.2979 120.577 26.4896 120.14 27.5392C119.725 28.5888 119.167 29.4744 118.467 30.196C117.767 30.9176 116.947 31.4643 116.007 31.836C115.089 32.2077 114.127 32.3936 113.121 32.3936ZM113.121 29.3104C114.302 29.3104 115.231 28.8293 115.909 27.8672C116.587 26.8832 116.926 25.5821 116.926 23.964C116.926 22.324 116.587 21.0229 115.909 20.0608C115.231 19.0768 114.302 18.5848 113.121 18.5848C111.94 18.5848 111.011 19.0768 110.333 20.0608C109.677 21.0229 109.349 22.324 109.349 23.964C109.349 25.5821 109.677 26.8832 110.333 27.8672C111.011 28.8293 111.94 29.3104 113.121 29.3104ZM128.203 32.3936C126.847 32.3936 125.896 31.9891 125.35 31.18C124.803 30.3709 124.53 29.2667 124.53 27.8672V8.8432H128.302V28.064C128.302 28.5232 128.389 28.8512 128.564 29.048C128.739 29.2229 128.925 29.3104 129.122 29.3104C129.209 29.3104 129.286 29.3104 129.351 29.3104C129.439 29.3104 129.559 29.2885 129.712 29.2448L130.204 32.0656C129.701 32.2843 129.034 32.3936 128.203 32.3936Z" fill="black"/>
<circle cx="95" cy="10" r="3" fill="#09B451"/>
<circle cx="113" cy="10" r="3" fill="#09B451"/>
</svg>
